<?xml version="1.0" encoding="utf-8"?>
<svg version="1.1" xmlns:xlink="http://www.w3.org/1999/xlink" width="20px" height="12px" xmlns="http://www.w3.org/2000/svg">
  <g transform="matrix(1 0 0 1 -830 -16 )">
    <path d="M 19.799599198396795 9.814432989690722  C 19.933199732798933 9.951890034364258  20 10.109965635738831  20 10.288659793814434  C 20 10.467353951890033  19.933199732798933 10.625429553264603  19.799599198396795 10.762886597938145  L 18.79759519038076 11.79381443298969  C 18.663994655978627 11.931271477663227  18.510354041416168 12  18.336673346693388 12  C 18.162992651970608 12  18.00935203740815 11.931271477663227  17.87575150300601 11.79381443298969  L 10 3.6907216494845363  L 2.124248496993988 11.79381443298969  C 1.9906479625918505 11.931271477663227  1.8370073480293925 12  1.6633266533066133 12  C 1.4896459585838344 12  1.3360053440213764 11.931271477663227  1.2024048096192383 11.79381443298969  L 0.2004008016032064 10.762886597938145  C 0.06680026720106899 10.625429553264603  0 10.467353951890033  0 10.288659793814434  C 0 10.109965635738831  0.06680026720106899 9.951890034364258  0.2004008016032064 9.814432989690722  L 9.539078156312625 0.20618556701030988  C 9.672678690714765 0.06872852233676818  9.826319305277222 0  10 0  C 10.17368069472278 0  10.327321309285239 0.06872852233676818  10.460921843687373 0.20618556701030988  L 19.799599198396795 9.814432989690722  Z " fill-rule="nonzero" fill="#aaaaaa" stroke="none" transform="matrix(1 0 0 1 830 16 )" />
  </g>
</svg>