<?xml version="1.0" standalone="no"?><!DOCTYPE svg PUBLIC "-//W3C//DTD SVG 1.1//EN" "http://www.w3.org/Graphics/SVG/1.1/DTD/svg11.dtd"><svg t="1660096750457" class="icon" viewBox="0 0 1024 1024" version="1.1" xmlns="http://www.w3.org/2000/svg" p-id="2537" xmlns:xlink="http://www.w3.org/1999/xlink" width="200" height="200"><defs><style type="text/css">@font-face { font-family: feedback-iconfont; src: url("//at.alicdn.com/t/font_1031158_u69w8yhxdu.woff2?t=1630033759944") format("woff2"), url("//at.alicdn.com/t/font_1031158_u69w8yhxdu.woff?t=1630033759944") format("woff"), url("//at.alicdn.com/t/font_1031158_u69w8yhxdu.ttf?t=1630033759944") format("truetype"); }
</style></defs><path d="M384 556.8C409.6 544 428.8 512 428.8 480c0-44.8-38.4-76.8-76.8-76.8S268.8 435.2 268.8 480C268.8 512 288 544 320 556.8 256 569.6 204.8 640 204.8 723.2l288 0C492.8 640 448 569.6 384 556.8z" p-id="2538" fill="#FF4439"></path><path d="M550.4 403.2l192 0 0 32-192 0 0-32Z" p-id="2539" fill="#FF4439"></path><path d="M550.4 505.6l268.8 0 0 32-268.8 0 0-32Z" p-id="2540" fill="#FF4439"></path><path d="M550.4 588.8l268.8 0 0 32-268.8 0 0-32Z" p-id="2541" fill="#FF4439"></path><path d="M550.4 684.8l268.8 0 0 32-268.8 0 0-32Z" p-id="2542" fill="#FF4439"></path><path d="M832 243.2 192 243.2c-38.4 0-64 25.6-64 64l0 512c0 38.4 25.6 64 64 64l640 0c38.4 0 64-25.6 64-64l0-512C896 268.8 870.4 243.2 832 243.2zM864 787.2c0 32-25.6 57.6-57.6 57.6L217.6 844.8c-32 0-57.6-25.6-57.6-57.6L160 332.8c0-32 25.6-57.6 57.6-57.6l588.8 0c32 0 57.6 25.6 57.6 57.6L864 787.2z" p-id="2543" fill="#FF4439"></path><path d="M512 140.8c-64 0-121.6 38.4-134.4 96L512 236.8c-19.2 0-32-12.8-32-32C480 192 492.8 179.2 512 179.2S544 192 544 204.8c0 19.2-12.8 32-32 32l134.4 0C633.6 185.6 576 140.8 512 140.8z" p-id="2544" fill="#FF4439"></path></svg>