<?xml version="1.0" encoding="utf-8"?>
<svg version="1.1" xmlns:xlink="http://www.w3.org/1999/xlink" width="22px" height="19px" xmlns="http://www.w3.org/2000/svg">
  <g transform="matrix(1 0 0 1 -1210 -93 )">
    <path d="M 21.851743951612903 18.449972098214282  C 22.094364919354835 18.091155133928567  22.002106854838708 17.602399553571423  21.645688004032255 17.358035714285712  L 17.367691532258064 14.426785714285716  C 18.22945060483871 13.002566964285716  18.725919858870967 11.329854910714285  18.725919858870967 9.540373883928572  C 18.725919858870967 4.3445033482142845  14.541040826612905 0.1324218750000006  9.378692036290323 0.1324218750000006  C 4.216343245967743 0.1324218750000006  0.03146421370967742 4.344531250000001  0.03146421370967742 9.540401785714286  C 0.03146421370967742 14.736216517857144  4.216370967741936 18.948297991071428  9.378719758064516 18.948297991071428  C 12.201960685483872 18.948297991071428  14.732875504032258 17.688504464285714  16.446774193548386 15.696986607142852  L 20.767018649193545 18.657282366071424  C 20.896247084818675 18.746166606562813  21.049139422950397 18.79368495460183  21.205660282258062 18.793610491071426  C 21.45532258064516 18.793610491071426  21.70060483870968 18.673297991071426  21.851743951612903 18.449972098214282  Z M 14.884097782258063 15.081473214285719  C 14.168543346774193 15.801702008928572  13.335725806451611 16.36696428571429  12.40882056451613 16.7615234375  C 11.449952116935483 17.16969866071429  10.430483870967741 17.37667410714286  9.378719758064518 17.37667410714286  C 8.326955645161293 17.37667410714286  7.307459677419358 17.16969866071429  6.348591229838711 16.7615234375  C 5.4216582661290325 16.366936383928575  4.588868447580646 15.801702008928572  3.873314012096775 15.081473214285719  C 3.1577872983870976 14.361300223214288  2.596227318548388 13.523102678571432  2.204102822580646 12.590122767857146  C 1.798533266129033 11.625027901785716  1.5929208669354844 10.598828125000004  1.5929208669354844 9.540373883928574  C 1.5929208669354844 8.48175223214286  1.798533266129033 7.455691964285718  2.204102822580646 6.490597098214291  C 2.596227318548388 5.557617187500004  3.1577872983870976 4.7193917410714326  3.873314012096775 3.999246651785718  C 4.58889616935484 3.279017857142861  5.421685987903226 2.7138113839285753  6.348591229838711 2.3191685267857176  C 7.307459677419358 1.9109654017857178  8.326955645161293 1.7039620535714315  9.378719758064518 1.7039620535714315  C 10.430483870967747 1.7039620535714315  11.449952116935485 1.9109654017857178  12.40882056451613 2.3191685267857176  C 13.335753528225807 2.7138113839285753  14.16857106854839 3.278989955357146  14.88412550403226 3.999246651785718  C 15.599624495967742 4.7193917410714326  16.161239919354838 5.5576171875000036  16.553308971774193 6.490597098214291  C 16.958878528225807 7.455691964285718  17.164490927419358 8.481724330357148  17.164490927419358 9.540373883928574  C 17.164490927419358 10.598828125000004  16.958878528225807 11.625027901785716  16.553308971774193 12.590122767857146  C 16.352471474947837 13.068286197146012  16.104733136198163 13.525087487172826  15.81377520161291 13.95373883928572  C 15.729545624784727 14.009944386219866  15.656996642895603 14.082121014771472  15.600178931451616 14.166238839285716  C 15.553890829917144 14.234638307317807  15.518637154652401 14.309972904417583  15.495723286290323 14.389453125  C 15.305427577993374 14.631931335473595  15.101203670700682 14.862999277583992  14.884097782258063 15.081473214285719  Z " fill-rule="nonzero" fill="#7f7f7f" stroke="none" transform="matrix(1 0 0 1 1210 93 )" />
  </g>
</svg>